<?xml version="1.0" encoding="UTF-8"?>
<svg xmlns="http://www.w3.org/2000/svg" width="1100" height="620" viewBox="0 0 1100 620">
<rect width="100%" height="100%" fill="#f7f5ef"/>
<text x="550.0" y="34" text-anchor="middle" fill="#1e1b18" font-family="Arial, sans-serif" font-size="20" font-weight="bold">QR-HybridFin Performance Comparison</text>
<text x="550.0" y="56" text-anchor="middle" fill="#5c544c" font-family="Arial, sans-serif" font-size="11" font-weight="normal">Classical vs hybrid PQC vs ML-optimized values from the paper's table</text>
<line x1="80" y1="540" x2="1020" y2="540" stroke="#2f2a24" stroke-width="2"/>
<line x1="80" y1="540" x2="80" y2="80" stroke="#2f2a24" stroke-width="2"/>
<line x1="80" y1="540.0" x2="1020" y2="540.0" stroke="#d9d0c3" stroke-width="1"/>
<text x="68" y="544.0" text-anchor="end" fill="#5c544c" font-family="Arial, sans-serif" font-size="11" font-weight="normal">0</text>
<line x1="80" y1="448.0" x2="1020" y2="448.0" stroke="#d9d0c3" stroke-width="1"/>
<text x="68" y="452.0" text-anchor="end" fill="#5c544c" font-family="Arial, sans-serif" font-size="11" font-weight="normal">271</text>
<line x1="80" y1="356.0" x2="1020" y2="356.0" stroke="#d9d0c3" stroke-width="1"/>
<text x="68" y="360.0" text-anchor="end" fill="#5c544c" font-family="Arial, sans-serif" font-size="11" font-weight="normal">543</text>
<line x1="80" y1="263.99999999999994" x2="1020" y2="263.99999999999994" stroke="#d9d0c3" stroke-width="1"/>
<text x="68" y="267.99999999999994" text-anchor="end" fill="#5c544c" font-family="Arial, sans-serif" font-size="11" font-weight="normal">814</text>
<line x1="80" y1="172.00000000000006" x2="1020" y2="172.00000000000006" stroke="#d9d0c3" stroke-width="1"/>
<text x="68" y="176.00000000000006" text-anchor="end" fill="#5c544c" font-family="Arial, sans-serif" font-size="11" font-weight="normal">1086</text>
<line x1="80" y1="80.0" x2="1020" y2="80.0" stroke="#d9d0c3" stroke-width="1"/>
<text x="68" y="84.0" text-anchor="end" fill="#5c544c" font-family="Arial, sans-serif" font-size="11" font-weight="normal">1357</text>
<text x="22" y="310.0" text-anchor="middle" fill="#5c544c" font-family="Arial, sans-serif" font-size="12" font-weight="normal">Latency (ms) or TPS</text>
<rect x="770" y="44" width="16" height="16" rx="4" ry="4" fill="#708fb8" stroke="#708fb8" stroke-width="1.2"/>
<text x="792" y="57" text-anchor="start" fill="#3c362f" font-family="Arial, sans-serif" font-size="11" font-weight="normal">Classical</text>
<rect x="108.576" y="539.7220338983051" width="51.7" height="0.27796610169491487" rx="2" ry="2" fill="#708fb8" stroke="#708fb8" stroke-width="1.2"/>
<rect x="343.57599999999996" y="539.8610169491525" width="51.7" height="0.13898305084751428" rx="2" ry="2" fill="#708fb8" stroke="#708fb8" stroke-width="1.2"/>
<rect x="578.576" y="539.4983050847458" width="51.7" height="0.5016949152542338" rx="2" ry="2" fill="#708fb8" stroke="#708fb8" stroke-width="1.2"/>
<rect x="813.576" y="140.0" width="51.7" height="400.0" rx="2" ry="2" fill="#708fb8" stroke="#708fb8" stroke-width="1.2"/>
<rect x="900" y="44" width="16" height="16" rx="4" ry="4" fill="#8f6b3f" stroke="#8f6b3f" stroke-width="1.2"/>
<text x="922" y="57" text-anchor="start" fill="#3c362f" font-family="Arial, sans-serif" font-size="11" font-weight="normal">Hybrid PQC</text>
<rect x="171.65" y="539.5966101694916" width="51.7" height="0.4033898305084449" rx="2" ry="2" fill="#8f6b3f" stroke="#8f6b3f" stroke-width="1.2"/>
<rect x="406.65" y="539.7694915254237" width="51.7" height="0.23050847457625423" rx="2" ry="2" fill="#8f6b3f" stroke="#8f6b3f" stroke-width="1.2"/>
<rect x="641.65" y="539.064406779661" width="51.7" height="0.9355932203390012" rx="2" ry="2" fill="#8f6b3f" stroke="#8f6b3f" stroke-width="1.2"/>
<rect x="876.65" y="212.88135593220335" width="51.7" height="327.11864406779665" rx="2" ry="2" fill="#8f6b3f" stroke="#8f6b3f" stroke-width="1.2"/>
<rect x="1030" y="44" width="16" height="16" rx="4" ry="4" fill="#4e8a63" stroke="#4e8a63" stroke-width="1.2"/>
<text x="1052" y="57" text-anchor="start" fill="#3c362f" font-family="Arial, sans-serif" font-size="11" font-weight="normal">Derived optimized</text>
<rect x="234.72400000000002" y="539.6269694915254" width="51.7" height="0.3730305084745851" rx="2" ry="2" fill="#4e8a63" stroke="#4e8a63" stroke-width="1.2"/>
<rect x="469.724" y="539.8000033898305" width="51.7" height="0.19999661016947812" rx="2" ry="2" fill="#4e8a63" stroke="#4e8a63" stroke-width="1.2"/>
<rect x="704.724" y="539.1882576271187" width="51.7" height="0.8117423728813264" rx="2" ry="2" fill="#4e8a63" stroke="#4e8a63" stroke-width="1.2"/>
<rect x="939.724" y="187.2" width="51.7" height="352.8" rx="2" ry="2" fill="#4e8a63" stroke="#4e8a63" stroke-width="1.2"/>
<text x="197.5" y="568" text-anchor="middle" fill="#1e1b18" font-family="Arial, sans-serif" font-size="11" font-weight="normal">Key Generation</text>
<line x1="197.5" y1="540" x2="197.5" y2="546" stroke="#2f2a24" stroke-width="1"/>
<text x="432.5" y="568" text-anchor="middle" fill="#1e1b18" font-family="Arial, sans-serif" font-size="11" font-weight="normal">Encapsulation</text>
<line x1="432.5" y1="540" x2="432.5" y2="546" stroke="#2f2a24" stroke-width="1"/>
<text x="667.5" y="568" text-anchor="middle" fill="#1e1b18" font-family="Arial, sans-serif" font-size="11" font-weight="normal">Signing</text>
<line x1="667.5" y1="540" x2="667.5" y2="546" stroke="#2f2a24" stroke-width="1"/>
<text x="902.5" y="568" text-anchor="middle" fill="#1e1b18" font-family="Arial, sans-serif" font-size="11" font-weight="normal">End-to-End Wholesale TPS</text>
<line x1="902.5" y1="540" x2="902.5" y2="546" stroke="#2f2a24" stroke-width="1"/>
</svg>
