<?xml version="1.0" encoding="UTF-8"?>
<svg xmlns="http://www.w3.org/2000/svg" width="1100" height="620" viewBox="0 0 1100 620">
<rect width="100%" height="100%" fill="#f7f5ef"/>
<text x="550.0" y="34" text-anchor="middle" fill="#1e1b18" font-family="Arial, sans-serif" font-size="20" font-weight="bold">Quantum Resistance vs Classical Breakability</text>
<text x="550.0" y="56" text-anchor="middle" fill="#5c544c" font-family="Arial, sans-serif" font-size="11" font-weight="normal">A paper-aligned qualitative model for the Qiskit/Shor discussion</text>
<line x1="90" y1="530" x2="1010" y2="530" stroke="#2f2a24" stroke-width="2"/>
<line x1="90" y1="530" x2="90" y2="90" stroke="#2f2a24" stroke-width="2"/>
<line x1="90" y1="530.0" x2="1010" y2="530.0" stroke="#d9d0c3" stroke-width="1"/>
<text x="78" y="534.0" text-anchor="end" fill="#5c544c" font-family="Arial, sans-serif" font-size="11" font-weight="normal">0</text>
<line x1="90" y1="442.0" x2="1010" y2="442.0" stroke="#d9d0c3" stroke-width="1"/>
<text x="78" y="446.0" text-anchor="end" fill="#5c544c" font-family="Arial, sans-serif" font-size="11" font-weight="normal">20</text>
<line x1="90" y1="354.0" x2="1010" y2="354.0" stroke="#d9d0c3" stroke-width="1"/>
<text x="78" y="358.0" text-anchor="end" fill="#5c544c" font-family="Arial, sans-serif" font-size="11" font-weight="normal">40</text>
<line x1="90" y1="266.0" x2="1010" y2="266.0" stroke="#d9d0c3" stroke-width="1"/>
<text x="78" y="270.0" text-anchor="end" fill="#5c544c" font-family="Arial, sans-serif" font-size="11" font-weight="normal">60</text>
<line x1="90" y1="178.0" x2="1010" y2="178.0" stroke="#d9d0c3" stroke-width="1"/>
<text x="78" y="182.0" text-anchor="end" fill="#5c544c" font-family="Arial, sans-serif" font-size="11" font-weight="normal">80</text>
<line x1="90" y1="90.0" x2="1010" y2="90.0" stroke="#d9d0c3" stroke-width="1"/>
<text x="78" y="94.0" text-anchor="end" fill="#5c544c" font-family="Arial, sans-serif" font-size="11" font-weight="normal">100</text>
<rect x="92.36363636363636" y="112.0" width="83.63636363636364" height="418.0" rx="4" ry="4" fill="#c85a4d" stroke="#c85a4d" stroke-width="1.2"/>
<rect x="188.0" y="508.0" width="83.63636363636364" height="22.0" rx="4" ry="4" fill="#558b6e" stroke="#558b6e" stroke-width="1.2"/>
<text x="182.0" y="576" text-anchor="middle" fill="#1e1b18" font-family="Arial, sans-serif" font-size="10" font-weight="normal">RSA-2048</text>
<rect x="276.3636363636364" y="134.0" width="83.63636363636364" height="396.0" rx="4" ry="4" fill="#c85a4d" stroke="#c85a4d" stroke-width="1.2"/>
<rect x="372.0" y="486.0" width="83.63636363636364" height="44.0" rx="4" ry="4" fill="#558b6e" stroke="#558b6e" stroke-width="1.2"/>
<text x="366.0" y="576" text-anchor="middle" fill="#1e1b18" font-family="Arial, sans-serif" font-size="10" font-weight="normal">ECC P-256</text>
<rect x="460.3636363636364" y="450.8" width="83.63636363636364" height="79.2" rx="4" ry="4" fill="#c85a4d" stroke="#c85a4d" stroke-width="1.2"/>
<rect x="556.0" y="169.20000000000005" width="83.63636363636364" height="360.79999999999995" rx="4" ry="4" fill="#558b6e" stroke="#558b6e" stroke-width="1.2"/>
<text x="550.0" y="576" text-anchor="middle" fill="#1e1b18" font-family="Arial, sans-serif" font-size="10" font-weight="normal">ML-KEM + ECDH Hybrid</text>
<rect x="644.3636363636364" y="442.0" width="83.63636363636364" height="88.0" rx="4" ry="4" fill="#c85a4d" stroke="#c85a4d" stroke-width="1.2"/>
<rect x="740.0" y="178.0" width="83.63636363636364" height="352.0" rx="4" ry="4" fill="#558b6e" stroke="#558b6e" stroke-width="1.2"/>
<text x="734.0" y="576" text-anchor="middle" fill="#1e1b18" font-family="Arial, sans-serif" font-size="10" font-weight="normal">ML-DSA + ECDSA Hybrid</text>
<rect x="828.3636363636364" y="494.8" width="83.63636363636364" height="35.2" rx="4" ry="4" fill="#c85a4d" stroke="#c85a4d" stroke-width="1.2"/>
<rect x="924.0" y="125.19999999999999" width="83.63636363636364" height="404.8" rx="4" ry="4" fill="#558b6e" stroke="#558b6e" stroke-width="1.2"/>
<text x="918.0" y="576" text-anchor="middle" fill="#1e1b18" font-family="Arial, sans-serif" font-size="10" font-weight="normal">SLH-DSA Fallback</text>
<rect x="770" y="50" width="18" height="18" rx="4" ry="4" fill="#c85a4d" stroke="#c85a4d" stroke-width="1.2"/>
<text x="794" y="64" text-anchor="start" fill="#1e1b18" font-family="Arial, sans-serif" font-size="11" font-weight="normal">Breakability risk</text>
<rect x="890" y="50" width="18" height="18" rx="4" ry="4" fill="#558b6e" stroke="#558b6e" stroke-width="1.2"/>
<text x="914" y="64" text-anchor="start" fill="#1e1b18" font-family="Arial, sans-serif" font-size="11" font-weight="normal">Resistance score</text>
</svg>
