<?xml version="1.0" encoding="UTF-8"?>
<svg xmlns="http://www.w3.org/2000/svg" width="1100" height="620" viewBox="0 0 1100 620">
<rect width="100%" height="100%" fill="#f7f5ef"/>
<text x="550.0" y="34" text-anchor="middle" fill="#1e1b18" font-family="Arial, sans-serif" font-size="20" font-weight="bold">Cross-Border Settlement Latency</text>
<text x="550.0" y="56" text-anchor="middle" fill="#5c544c" font-family="Arial, sans-serif" font-size="11" font-weight="normal">Mininet + tc WAN emulation over 100-300 ms links with packet loss and bandwidth constraints</text>
<line x1="80" y1="540" x2="1020" y2="540" stroke="#2f2a24" stroke-width="2"/>
<line x1="80" y1="540" x2="80" y2="80" stroke="#2f2a24" stroke-width="2"/>
<line x1="80" y1="540.0" x2="1020" y2="540.0" stroke="#d9d0c3" stroke-width="1"/>
<text x="68" y="544.0" text-anchor="end" fill="#5c544c" font-family="Arial, sans-serif" font-size="11" font-weight="normal">0</text>
<line x1="80" y1="448.0" x2="1020" y2="448.0" stroke="#d9d0c3" stroke-width="1"/>
<text x="68" y="452.0" text-anchor="end" fill="#5c544c" font-family="Arial, sans-serif" font-size="11" font-weight="normal">79</text>
<line x1="80" y1="356.0" x2="1020" y2="356.0" stroke="#d9d0c3" stroke-width="1"/>
<text x="68" y="360.0" text-anchor="end" fill="#5c544c" font-family="Arial, sans-serif" font-size="11" font-weight="normal">157</text>
<line x1="80" y1="264.0" x2="1020" y2="264.0" stroke="#d9d0c3" stroke-width="1"/>
<text x="68" y="268.0" text-anchor="end" fill="#5c544c" font-family="Arial, sans-serif" font-size="11" font-weight="normal">236</text>
<line x1="80" y1="172.0" x2="1020" y2="172.0" stroke="#d9d0c3" stroke-width="1"/>
<text x="68" y="176.0" text-anchor="end" fill="#5c544c" font-family="Arial, sans-serif" font-size="11" font-weight="normal">315</text>
<line x1="80" y1="80.0" x2="1020" y2="80.0" stroke="#d9d0c3" stroke-width="1"/>
<text x="68" y="84.0" text-anchor="end" fill="#5c544c" font-family="Arial, sans-serif" font-size="11" font-weight="normal">393</text>
<text x="550.0" y="602" text-anchor="middle" fill="#5c544c" font-family="Arial, sans-serif" font-size="12" font-weight="normal">Emulated network latency (ms)</text>
<text x="22" y="310.0" text-anchor="middle" fill="#5c544c" font-family="Arial, sans-serif" font-size="12" font-weight="normal">Settlement latency (ms)</text>
<rect x="770" y="44" width="16" height="16" rx="4" ry="4" fill="#708fb8" stroke="#708fb8" stroke-width="1.2"/>
<text x="792" y="57" text-anchor="start" fill="#3c362f" font-family="Arial, sans-serif" font-size="11" font-weight="normal">Classical</text>
<circle cx="80.0" cy="390.29239766081866" r="4" fill="#708fb8" stroke="#fff" stroke-width="1"/>
<circle cx="315.0" cy="341.16959064327483" r="4" fill="#708fb8" stroke="#fff" stroke-width="1"/>
<circle cx="550.0" cy="285.02923976608184" r="4" fill="#708fb8" stroke="#fff" stroke-width="1"/>
<circle cx="785.0" cy="233.56725146198823" r="4" fill="#708fb8" stroke="#fff" stroke-width="1"/>
<circle cx="1020.0" cy="183.2748538011695" r="4" fill="#708fb8" stroke="#fff" stroke-width="1"/>
<polyline fill="none" stroke="#708fb8" stroke-width="2.5" points="80.0,390.29239766081866 315.0,341.16959064327483 550.0,285.02923976608184 785.0,233.56725146198823 1020.0,183.2748538011695"/>
<rect x="920" y="44" width="16" height="16" rx="4" ry="4" fill="#8f6b3f" stroke="#8f6b3f" stroke-width="1.2"/>
<text x="942" y="57" text-anchor="start" fill="#3c362f" font-family="Arial, sans-serif" font-size="11" font-weight="normal">Static hybrid</text>
<circle cx="80.0" cy="371.57894736842104" r="4" fill="#8f6b3f" stroke="#fff" stroke-width="1"/>
<circle cx="315.0" cy="316.6081871345029" r="4" fill="#8f6b3f" stroke="#fff" stroke-width="1"/>
<circle cx="550.0" cy="254.61988304093563" r="4" fill="#8f6b3f" stroke="#fff" stroke-width="1"/>
<circle cx="785.0" cy="197.30994152046776" r="4" fill="#8f6b3f" stroke="#fff" stroke-width="1"/>
<circle cx="1020.0" cy="139.99999999999994" r="4" fill="#8f6b3f" stroke="#fff" stroke-width="1"/>
<polyline fill="none" stroke="#8f6b3f" stroke-width="2.5" points="80.0,371.57894736842104 315.0,316.6081871345029 550.0,254.61988304093563 785.0,197.30994152046776 1020.0,139.99999999999994"/>
<rect x="1070" y="44" width="16" height="16" rx="4" ry="4" fill="#4e8a63" stroke="#4e8a63" stroke-width="1.2"/>
<text x="1092" y="57" text-anchor="start" fill="#3c362f" font-family="Arial, sans-serif" font-size="11" font-weight="normal">ML-optimized</text>
<circle cx="80.0" cy="380.9356725146199" r="4" fill="#4e8a63" stroke="#fff" stroke-width="1"/>
<circle cx="315.0" cy="329.4736842105263" r="4" fill="#4e8a63" stroke="#fff" stroke-width="1"/>
<circle cx="550.0" cy="270.9941520467836" r="4" fill="#4e8a63" stroke="#fff" stroke-width="1"/>
<circle cx="785.0" cy="216.02339181286544" r="4" fill="#4e8a63" stroke="#fff" stroke-width="1"/>
<circle cx="1020.0" cy="163.39181286549706" r="4" fill="#4e8a63" stroke="#fff" stroke-width="1"/>
<polyline fill="none" stroke="#4e8a63" stroke-width="2.5" points="80.0,380.9356725146199 315.0,329.4736842105263 550.0,270.9941520467836 785.0,216.02339181286544 1020.0,163.39181286549706"/>
<text x="80.0" y="568" text-anchor="middle" fill="#1e1b18" font-family="Arial, sans-serif" font-size="11" font-weight="normal">100</text>
<line x1="80.0" y1="540" x2="80.0" y2="546" stroke="#2f2a24" stroke-width="1"/>
<text x="315.0" y="568" text-anchor="middle" fill="#1e1b18" font-family="Arial, sans-serif" font-size="11" font-weight="normal">150</text>
<line x1="315.0" y1="540" x2="315.0" y2="546" stroke="#2f2a24" stroke-width="1"/>
<text x="550.0" y="568" text-anchor="middle" fill="#1e1b18" font-family="Arial, sans-serif" font-size="11" font-weight="normal">200</text>
<line x1="550.0" y1="540" x2="550.0" y2="546" stroke="#2f2a24" stroke-width="1"/>
<text x="785.0" y="568" text-anchor="middle" fill="#1e1b18" font-family="Arial, sans-serif" font-size="11" font-weight="normal">250</text>
<line x1="785.0" y1="540" x2="785.0" y2="546" stroke="#2f2a24" stroke-width="1"/>
<text x="1020.0" y="568" text-anchor="middle" fill="#1e1b18" font-family="Arial, sans-serif" font-size="11" font-weight="normal">300</text>
<line x1="1020.0" y1="540" x2="1020.0" y2="546" stroke="#2f2a24" stroke-width="1"/>
</svg>
