<?xml version="1.0" encoding="UTF-8"?>
<svg xmlns="http://www.w3.org/2000/svg" width="1100" height="620" viewBox="0 0 1100 620">
<rect width="100%" height="100%" fill="#f7f5ef"/>
<text x="550.0" y="34" text-anchor="middle" fill="#1e1b18" font-family="Arial, sans-serif" font-size="20" font-weight="bold">QR-HybridFin Cryptographic Latency</text>
<text x="550.0" y="56" text-anchor="middle" fill="#5c544c" font-family="Arial, sans-serif" font-size="11" font-weight="normal">Paper Table I latencies reproduced and ML-optimized values derived from the published overhead reduction</text>
<line x1="80" y1="540" x2="1020" y2="540" stroke="#2f2a24" stroke-width="2"/>
<line x1="80" y1="540" x2="80" y2="80" stroke="#2f2a24" stroke-width="2"/>
<line x1="80" y1="540.0" x2="1020" y2="540.0" stroke="#d9d0c3" stroke-width="1"/>
<text x="68" y="544.0" text-anchor="end" fill="#5c544c" font-family="Arial, sans-serif" font-size="11" font-weight="normal">0</text>
<line x1="80" y1="448.0" x2="1020" y2="448.0" stroke="#d9d0c3" stroke-width="1"/>
<text x="68" y="452.0" text-anchor="end" fill="#5c544c" font-family="Arial, sans-serif" font-size="11" font-weight="normal">1</text>
<line x1="80" y1="356.0" x2="1020" y2="356.0" stroke="#d9d0c3" stroke-width="1"/>
<text x="68" y="360.0" text-anchor="end" fill="#5c544c" font-family="Arial, sans-serif" font-size="11" font-weight="normal">1</text>
<line x1="80" y1="264.0" x2="1020" y2="264.0" stroke="#d9d0c3" stroke-width="1"/>
<text x="68" y="268.0" text-anchor="end" fill="#5c544c" font-family="Arial, sans-serif" font-size="11" font-weight="normal">2</text>
<line x1="80" y1="172.0" x2="1020" y2="172.0" stroke="#d9d0c3" stroke-width="1"/>
<text x="68" y="176.0" text-anchor="end" fill="#5c544c" font-family="Arial, sans-serif" font-size="11" font-weight="normal">3</text>
<line x1="80" y1="80.0" x2="1020" y2="80.0" stroke="#d9d0c3" stroke-width="1"/>
<text x="68" y="84.0" text-anchor="end" fill="#5c544c" font-family="Arial, sans-serif" font-size="11" font-weight="normal">3</text>
<text x="22" y="310.0" text-anchor="middle" fill="#5c544c" font-family="Arial, sans-serif" font-size="12" font-weight="normal">Latency (ms)</text>
<rect x="770" y="44" width="16" height="16" rx="4" ry="4" fill="#708fb8" stroke="#708fb8" stroke-width="1.2"/>
<text x="792" y="57" text-anchor="start" fill="#3c362f" font-family="Arial, sans-serif" font-size="11" font-weight="normal">Classical</text>
<rect x="118.10133333333332" y="421.15942028985506" width="68.93333333333332" height="118.84057971014494" rx="2" ry="2" fill="#708fb8" stroke="#708fb8" stroke-width="1.2"/>
<rect x="431.4346666666667" y="480.5797101449275" width="68.93333333333332" height="59.4202898550725" rx="2" ry="2" fill="#708fb8" stroke="#708fb8" stroke-width="1.2"/>
<rect x="744.768" y="325.50724637681157" width="68.93333333333332" height="214.49275362318843" rx="2" ry="2" fill="#708fb8" stroke="#708fb8" stroke-width="1.2"/>
<rect x="900" y="44" width="16" height="16" rx="4" ry="4" fill="#8f6b3f" stroke="#8f6b3f" stroke-width="1.2"/>
<text x="922" y="57" text-anchor="start" fill="#3c362f" font-family="Arial, sans-serif" font-size="11" font-weight="normal">Hybrid PQC</text>
<rect x="202.19999999999996" y="367.53623188405794" width="68.93333333333332" height="172.46376811594206" rx="2" ry="2" fill="#8f6b3f" stroke="#8f6b3f" stroke-width="1.2"/>
<rect x="515.5333333333333" y="441.4492753623188" width="68.93333333333332" height="98.55072463768118" rx="2" ry="2" fill="#8f6b3f" stroke="#8f6b3f" stroke-width="1.2"/>
<rect x="828.8666666666667" y="139.99999999999994" width="68.93333333333332" height="400.00000000000006" rx="2" ry="2" fill="#8f6b3f" stroke="#8f6b3f" stroke-width="1.2"/>
<rect x="1030" y="44" width="16" height="16" rx="4" ry="4" fill="#4e8a63" stroke="#4e8a63" stroke-width="1.2"/>
<text x="1052" y="57" text-anchor="start" fill="#3c362f" font-family="Arial, sans-serif" font-size="11" font-weight="normal">ML-optimized</text>
<rect x="286.29866666666663" y="380.52173913043475" width="68.93333333333332" height="159.47826086956525" rx="2" ry="2" fill="#4e8a63" stroke="#4e8a63" stroke-width="1.2"/>
<rect x="599.632" y="454.50724637681157" width="68.93333333333332" height="85.49275362318843" rx="2" ry="2" fill="#4e8a63" stroke="#4e8a63" stroke-width="1.2"/>
<rect x="912.9653333333333" y="192.95652173913032" width="68.93333333333332" height="347.0434782608697" rx="2" ry="2" fill="#4e8a63" stroke="#4e8a63" stroke-width="1.2"/>
<text x="236.66666666666666" y="568" text-anchor="middle" fill="#1e1b18" font-family="Arial, sans-serif" font-size="11" font-weight="normal">Key Generation</text>
<line x1="236.66666666666666" y1="540" x2="236.66666666666666" y2="546" stroke="#2f2a24" stroke-width="1"/>
<text x="550.0" y="568" text-anchor="middle" fill="#1e1b18" font-family="Arial, sans-serif" font-size="11" font-weight="normal">Encapsulation</text>
<line x1="550.0" y1="540" x2="550.0" y2="546" stroke="#2f2a24" stroke-width="1"/>
<text x="863.3333333333334" y="568" text-anchor="middle" fill="#1e1b18" font-family="Arial, sans-serif" font-size="11" font-weight="normal">Signing</text>
<line x1="863.3333333333334" y1="540" x2="863.3333333333334" y2="546" stroke="#2f2a24" stroke-width="1"/>
</svg>
