<?xml version="1.0" encoding="UTF-8"?>
<svg xmlns="http://www.w3.org/2000/svg" width="1100" height="620" viewBox="0 0 1100 620">
<rect width="100%" height="100%" fill="#f7f5ef"/>
<text x="550.0" y="34" text-anchor="middle" fill="#1e1b18" font-family="Arial, sans-serif" font-size="20" font-weight="bold">Latency vs Payload Size</text>
<text x="550.0" y="56" text-anchor="middle" fill="#5c544c" font-family="Arial, sans-serif" font-size="11" font-weight="normal">Synthetic benchmark calibrated to the paper's 0.012-0.025 ms/byte PQC overhead range</text>
<line x1="80" y1="540" x2="1020" y2="540" stroke="#2f2a24" stroke-width="2"/>
<line x1="80" y1="540" x2="80" y2="80" stroke="#2f2a24" stroke-width="2"/>
<line x1="80" y1="540.0" x2="1020" y2="540.0" stroke="#d9d0c3" stroke-width="1"/>
<text x="68" y="544.0" text-anchor="end" fill="#5c544c" font-family="Arial, sans-serif" font-size="11" font-weight="normal">0</text>
<line x1="80" y1="448.0" x2="1020" y2="448.0" stroke="#d9d0c3" stroke-width="1"/>
<text x="68" y="452.0" text-anchor="end" fill="#5c544c" font-family="Arial, sans-serif" font-size="11" font-weight="normal">6</text>
<line x1="80" y1="356.0" x2="1020" y2="356.0" stroke="#d9d0c3" stroke-width="1"/>
<text x="68" y="360.0" text-anchor="end" fill="#5c544c" font-family="Arial, sans-serif" font-size="11" font-weight="normal">12</text>
<line x1="80" y1="264.0" x2="1020" y2="264.0" stroke="#d9d0c3" stroke-width="1"/>
<text x="68" y="268.0" text-anchor="end" fill="#5c544c" font-family="Arial, sans-serif" font-size="11" font-weight="normal">18</text>
<line x1="80" y1="172.00000000000006" x2="1020" y2="172.00000000000006" stroke="#d9d0c3" stroke-width="1"/>
<text x="68" y="176.00000000000006" text-anchor="end" fill="#5c544c" font-family="Arial, sans-serif" font-size="11" font-weight="normal">24</text>
<line x1="80" y1="80.0" x2="1020" y2="80.0" stroke="#d9d0c3" stroke-width="1"/>
<text x="68" y="84.0" text-anchor="end" fill="#5c544c" font-family="Arial, sans-serif" font-size="11" font-weight="normal">30</text>
<text x="550.0" y="602" text-anchor="middle" fill="#5c544c" font-family="Arial, sans-serif" font-size="12" font-weight="normal">Payload (bytes)</text>
<text x="22" y="310.0" text-anchor="middle" fill="#5c544c" font-family="Arial, sans-serif" font-size="12" font-weight="normal">Latency (ms)</text>
<rect x="770" y="44" width="16" height="16" rx="4" ry="4" fill="#708fb8" stroke="#708fb8" stroke-width="1.2"/>
<text x="792" y="57" text-anchor="start" fill="#3c362f" font-family="Arial, sans-serif" font-size="11" font-weight="normal">Classical</text>
<circle cx="80.0" cy="534.8277756749167" r="4" fill="#708fb8" stroke="#fff" stroke-width="1"/>
<circle cx="142.66666666666666" cy="533.9291078035141" r="4" fill="#708fb8" stroke="#fff" stroke-width="1"/>
<circle cx="268.0" cy="532.131772060709" r="4" fill="#708fb8" stroke="#fff" stroke-width="1"/>
<circle cx="518.6666666666667" cy="528.5371005750986" r="4" fill="#708fb8" stroke="#fff" stroke-width="1"/>
<circle cx="1020.0" cy="521.347757603878" r="4" fill="#708fb8" stroke="#fff" stroke-width="1"/>
<polyline fill="none" stroke="#708fb8" stroke-width="2.5" points="80.0,534.8277756749167 142.66666666666666,533.9291078035141 268.0,532.131772060709 518.6666666666667,528.5371005750986 1020.0,521.347757603878"/>
<rect x="920" y="44" width="16" height="16" rx="4" ry="4" fill="#8f6b3f" stroke="#8f6b3f" stroke-width="1.2"/>
<text x="942" y="57" text-anchor="start" fill="#3c362f" font-family="Arial, sans-serif" font-size="11" font-weight="normal">Static hybrid</text>
<circle cx="80.0" cy="510.9935408246743" r="4" fill="#8f6b3f" stroke="#fff" stroke-width="1"/>
<circle cx="142.66666666666666" cy="486.26063810302935" r="4" fill="#8f6b3f" stroke="#fff" stroke-width="1"/>
<circle cx="268.0" cy="436.7948326597394" r="4" fill="#8f6b3f" stroke="#fff" stroke-width="1"/>
<circle cx="518.6666666666667" cy="337.86322177315964" r="4" fill="#8f6b3f" stroke="#fff" stroke-width="1"/>
<circle cx="1020.0" cy="139.99999999999994" r="4" fill="#8f6b3f" stroke="#fff" stroke-width="1"/>
<polyline fill="none" stroke="#8f6b3f" stroke-width="2.5" points="80.0,510.9935408246743 142.66666666666666,486.26063810302935 268.0,436.7948326597394 518.6666666666667,337.86322177315964 1020.0,139.99999999999994"/>
<rect x="1070" y="44" width="16" height="16" rx="4" ry="4" fill="#4e8a63" stroke="#4e8a63" stroke-width="1.2"/>
<text x="1092" y="57" text-anchor="start" fill="#3c362f" font-family="Arial, sans-serif" font-size="11" font-weight="normal">ML-optimized</text>
<circle cx="80.0" cy="519.5894943772207" r="4" fill="#4e8a63" stroke="#fff" stroke-width="1"/>
<circle cx="142.66666666666666" cy="503.4525452081222" r="4" fill="#4e8a63" stroke="#fff" stroke-width="1"/>
<circle cx="268.0" cy="471.17864686992516" r="4" fill="#4e8a63" stroke="#fff" stroke-width="1"/>
<circle cx="518.6666666666667" cy="406.63085019353105" r="4" fill="#4e8a63" stroke="#fff" stroke-width="1"/>
<circle cx="1020.0" cy="277.5352568407429" r="4" fill="#4e8a63" stroke="#fff" stroke-width="1"/>
<polyline fill="none" stroke="#4e8a63" stroke-width="2.5" points="80.0,519.5894943772207 142.66666666666666,503.4525452081222 268.0,471.17864686992516 518.6666666666667,406.63085019353105 1020.0,277.5352568407429"/>
<text x="80.0" y="568" text-anchor="middle" fill="#1e1b18" font-family="Arial, sans-serif" font-size="11" font-weight="normal">128</text>
<line x1="80.0" y1="540" x2="80.0" y2="546" stroke="#2f2a24" stroke-width="1"/>
<text x="142.66666666666666" y="568" text-anchor="middle" fill="#1e1b18" font-family="Arial, sans-serif" font-size="11" font-weight="normal">256</text>
<line x1="142.66666666666666" y1="540" x2="142.66666666666666" y2="546" stroke="#2f2a24" stroke-width="1"/>
<text x="268.0" y="568" text-anchor="middle" fill="#1e1b18" font-family="Arial, sans-serif" font-size="11" font-weight="normal">512</text>
<line x1="268.0" y1="540" x2="268.0" y2="546" stroke="#2f2a24" stroke-width="1"/>
<text x="518.6666666666667" y="568" text-anchor="middle" fill="#1e1b18" font-family="Arial, sans-serif" font-size="11" font-weight="normal">1024</text>
<line x1="518.6666666666667" y1="540" x2="518.6666666666667" y2="546" stroke="#2f2a24" stroke-width="1"/>
<text x="1020.0" y="568" text-anchor="middle" fill="#1e1b18" font-family="Arial, sans-serif" font-size="11" font-weight="normal">2048</text>
<line x1="1020.0" y1="540" x2="1020.0" y2="546" stroke="#2f2a24" stroke-width="1"/>
</svg>
