<?xml version="1.0" encoding="UTF-8"?>
<svg xmlns="http://www.w3.org/2000/svg" width="1100" height="620" viewBox="0 0 1100 620">
<rect width="100%" height="100%" fill="#f7f5ef"/>
<text x="550.0" y="34" text-anchor="middle" fill="#1e1b18" font-family="Arial, sans-serif" font-size="20" font-weight="bold">Throughput Scaling vs Node Count</text>
<text x="550.0" y="56" text-anchor="middle" fill="#5c544c" font-family="Arial, sans-serif" font-size="11" font-weight="normal">50-500 node CBDC deployment scenario aligned with the paper's methodology</text>
<line x1="80" y1="540" x2="1020" y2="540" stroke="#2f2a24" stroke-width="2"/>
<line x1="80" y1="540" x2="80" y2="80" stroke="#2f2a24" stroke-width="2"/>
<line x1="80" y1="540.0" x2="1020" y2="540.0" stroke="#d9d0c3" stroke-width="1"/>
<text x="68" y="544.0" text-anchor="end" fill="#5c544c" font-family="Arial, sans-serif" font-size="11" font-weight="normal">0</text>
<line x1="80" y1="448.0" x2="1020" y2="448.0" stroke="#d9d0c3" stroke-width="1"/>
<text x="68" y="452.0" text-anchor="end" fill="#5c544c" font-family="Arial, sans-serif" font-size="11" font-weight="normal">260</text>
<line x1="80" y1="356.0" x2="1020" y2="356.0" stroke="#d9d0c3" stroke-width="1"/>
<text x="68" y="360.0" text-anchor="end" fill="#5c544c" font-family="Arial, sans-serif" font-size="11" font-weight="normal">519</text>
<line x1="80" y1="264.0" x2="1020" y2="264.0" stroke="#d9d0c3" stroke-width="1"/>
<text x="68" y="268.0" text-anchor="end" fill="#5c544c" font-family="Arial, sans-serif" font-size="11" font-weight="normal">779</text>
<line x1="80" y1="172.0" x2="1020" y2="172.0" stroke="#d9d0c3" stroke-width="1"/>
<text x="68" y="176.0" text-anchor="end" fill="#5c544c" font-family="Arial, sans-serif" font-size="11" font-weight="normal">1039</text>
<line x1="80" y1="80.0" x2="1020" y2="80.0" stroke="#d9d0c3" stroke-width="1"/>
<text x="68" y="84.0" text-anchor="end" fill="#5c544c" font-family="Arial, sans-serif" font-size="11" font-weight="normal">1299</text>
<text x="550.0" y="602" text-anchor="middle" fill="#5c544c" font-family="Arial, sans-serif" font-size="12" font-weight="normal">Concurrent nodes</text>
<text x="22" y="310.0" text-anchor="middle" fill="#5c544c" font-family="Arial, sans-serif" font-size="12" font-weight="normal">Transactions per second</text>
<rect x="770" y="44" width="16" height="16" rx="4" ry="4" fill="#708fb8" stroke="#708fb8" stroke-width="1.2"/>
<text x="792" y="57" text-anchor="start" fill="#3c362f" font-family="Arial, sans-serif" font-size="11" font-weight="normal">Classical</text>
<circle cx="80.0" cy="139.99999999999994" r="4" fill="#708fb8" stroke="#fff" stroke-width="1"/>
<circle cx="184.44444444444446" cy="149.82833556388402" r="4" fill="#708fb8" stroke="#fff" stroke-width="1"/>
<circle cx="288.8888888888889" cy="156.51376146788994" r="4" fill="#708fb8" stroke="#fff" stroke-width="1"/>
<circle cx="393.3333333333333" cy="161.5436766448721" r="4" fill="#708fb8" stroke="#fff" stroke-width="1"/>
<circle cx="497.77777777777777" cy="165.55650741384244" r="4" fill="#708fb8" stroke="#fff" stroke-width="1"/>
<circle cx="602.2222222222223" cy="168.88350708666525" r="4" fill="#708fb8" stroke="#fff" stroke-width="1"/>
<circle cx="706.6666666666666" cy="171.7180616740087" r="4" fill="#708fb8" stroke="#fff" stroke-width="1"/>
<circle cx="811.1111111111111" cy="174.18261531533688" r="4" fill="#708fb8" stroke="#fff" stroke-width="1"/>
<circle cx="915.5555555555555" cy="176.35944928388744" r="4" fill="#708fb8" stroke="#fff" stroke-width="1"/>
<circle cx="1020.0" cy="178.30643670968476" r="4" fill="#708fb8" stroke="#fff" stroke-width="1"/>
<polyline fill="none" stroke="#708fb8" stroke-width="2.5" points="80.0,139.99999999999994 184.44444444444446,149.82833556388402 288.8888888888889,156.51376146788994 393.3333333333333,161.5436766448721 497.77777777777777,165.55650741384244 602.2222222222223,168.88350708666525 706.6666666666666,171.7180616740087 811.1111111111111,174.18261531533688 915.5555555555555,176.35944928388744 1020.0,178.30643670968476"/>
<rect x="920" y="44" width="16" height="16" rx="4" ry="4" fill="#8f6b3f" stroke="#8f6b3f" stroke-width="1.2"/>
<text x="942" y="57" text-anchor="start" fill="#3c362f" font-family="Arial, sans-serif" font-size="11" font-weight="normal">Static hybrid</text>
<circle cx="80.0" cy="216.7999999999999" r="4" fill="#8f6b3f" stroke="#fff" stroke-width="1"/>
<circle cx="184.44444444444446" cy="227.02365306100916" r="4" fill="#8f6b3f" stroke="#fff" stroke-width="1"/>
<circle cx="288.8888888888889" cy="233.97798165137613" r="4" fill="#8f6b3f" stroke="#fff" stroke-width="1"/>
<circle cx="393.3333333333333" cy="239.2102111943659" r="4" fill="#8f6b3f" stroke="#fff" stroke-width="1"/>
<circle cx="497.77777777777777" cy="243.3844469342659" r="4" fill="#8f6b3f" stroke="#fff" stroke-width="1"/>
<circle cx="602.2222222222223" cy="246.84526592726223" r="4" fill="#8f6b3f" stroke="#fff" stroke-width="1"/>
<circle cx="706.6666666666666" cy="249.7938325991189" r="4" fill="#8f6b3f" stroke="#fff" stroke-width="1"/>
<circle cx="811.1111111111111" cy="252.35751606468705" r="4" fill="#8f6b3f" stroke="#fff" stroke-width="1"/>
<circle cx="915.5555555555555" cy="254.62190713286157" r="4" fill="#8f6b3f" stroke="#fff" stroke-width="1"/>
<circle cx="1020.0" cy="256.64720671956326" r="4" fill="#8f6b3f" stroke="#fff" stroke-width="1"/>
<polyline fill="none" stroke="#8f6b3f" stroke-width="2.5" points="80.0,216.7999999999999 184.44444444444446,227.02365306100916 288.8888888888889,233.97798165137613 393.3333333333333,239.2102111943659 497.77777777777777,243.3844469342659 602.2222222222223,246.84526592726223 706.6666666666666,249.7938325991189 811.1111111111111,252.35751606468705 915.5555555555555,254.62190713286157 1020.0,256.64720671956326"/>
<rect x="1070" y="44" width="16" height="16" rx="4" ry="4" fill="#4e8a63" stroke="#4e8a63" stroke-width="1.2"/>
<text x="1092" y="57" text-anchor="start" fill="#3c362f" font-family="Arial, sans-serif" font-size="11" font-weight="normal">ML-optimized</text>
<circle cx="80.0" cy="189.59999999999997" r="4" fill="#4e8a63" stroke="#fff" stroke-width="1"/>
<circle cx="184.44444444444446" cy="199.57903670919688" r="4" fill="#4e8a63" stroke="#fff" stroke-width="1"/>
<circle cx="288.8888888888889" cy="206.36697247706422" r="4" fill="#4e8a63" stroke="#fff" stroke-width="1"/>
<circle cx="393.3333333333333" cy="211.47401302009348" r="4" fill="#4e8a63" stroke="#fff" stroke-width="1"/>
<circle cx="497.77777777777777" cy="215.54837386085478" r="4" fill="#4e8a63" stroke="#fff" stroke-width="1"/>
<circle cx="602.2222222222223" cy="218.92638752866077" r="4" fill="#4e8a63" stroke="#fff" stroke-width="1"/>
<circle cx="706.6666666666666" cy="221.80440528634358" r="4" fill="#4e8a63" stroke="#fff" stroke-width="1"/>
<circle cx="811.1111111111111" cy="224.306748750172" r="4" fill="#4e8a63" stroke="#fff" stroke-width="1"/>
<circle cx="915.5555555555555" cy="226.51696083957376" r="4" fill="#4e8a63" stroke="#fff" stroke-width="1"/>
<circle cx="1020.0" cy="228.4938020725666" r="4" fill="#4e8a63" stroke="#fff" stroke-width="1"/>
<polyline fill="none" stroke="#4e8a63" stroke-width="2.5" points="80.0,189.59999999999997 184.44444444444446,199.57903670919688 288.8888888888889,206.36697247706422 393.3333333333333,211.47401302009348 497.77777777777777,215.54837386085478 602.2222222222223,218.92638752866077 706.6666666666666,221.80440528634358 811.1111111111111,224.306748750172 915.5555555555555,226.51696083957376 1020.0,228.4938020725666"/>
<text x="80.0" y="568" text-anchor="middle" fill="#1e1b18" font-family="Arial, sans-serif" font-size="11" font-weight="normal">50</text>
<line x1="80.0" y1="540" x2="80.0" y2="546" stroke="#2f2a24" stroke-width="1"/>
<text x="184.44444444444446" y="568" text-anchor="middle" fill="#1e1b18" font-family="Arial, sans-serif" font-size="11" font-weight="normal">100</text>
<line x1="184.44444444444446" y1="540" x2="184.44444444444446" y2="546" stroke="#2f2a24" stroke-width="1"/>
<text x="288.8888888888889" y="568" text-anchor="middle" fill="#1e1b18" font-family="Arial, sans-serif" font-size="11" font-weight="normal">150</text>
<line x1="288.8888888888889" y1="540" x2="288.8888888888889" y2="546" stroke="#2f2a24" stroke-width="1"/>
<text x="393.3333333333333" y="568" text-anchor="middle" fill="#1e1b18" font-family="Arial, sans-serif" font-size="11" font-weight="normal">200</text>
<line x1="393.3333333333333" y1="540" x2="393.3333333333333" y2="546" stroke="#2f2a24" stroke-width="1"/>
<text x="497.77777777777777" y="568" text-anchor="middle" fill="#1e1b18" font-family="Arial, sans-serif" font-size="11" font-weight="normal">250</text>
<line x1="497.77777777777777" y1="540" x2="497.77777777777777" y2="546" stroke="#2f2a24" stroke-width="1"/>
<text x="602.2222222222223" y="568" text-anchor="middle" fill="#1e1b18" font-family="Arial, sans-serif" font-size="11" font-weight="normal">300</text>
<line x1="602.2222222222223" y1="540" x2="602.2222222222223" y2="546" stroke="#2f2a24" stroke-width="1"/>
<text x="706.6666666666666" y="568" text-anchor="middle" fill="#1e1b18" font-family="Arial, sans-serif" font-size="11" font-weight="normal">350</text>
<line x1="706.6666666666666" y1="540" x2="706.6666666666666" y2="546" stroke="#2f2a24" stroke-width="1"/>
<text x="811.1111111111111" y="568" text-anchor="middle" fill="#1e1b18" font-family="Arial, sans-serif" font-size="11" font-weight="normal">400</text>
<line x1="811.1111111111111" y1="540" x2="811.1111111111111" y2="546" stroke="#2f2a24" stroke-width="1"/>
<text x="915.5555555555555" y="568" text-anchor="middle" fill="#1e1b18" font-family="Arial, sans-serif" font-size="11" font-weight="normal">450</text>
<line x1="915.5555555555555" y1="540" x2="915.5555555555555" y2="546" stroke="#2f2a24" stroke-width="1"/>
<text x="1020.0" y="568" text-anchor="middle" fill="#1e1b18" font-family="Arial, sans-serif" font-size="11" font-weight="normal">500</text>
<line x1="1020.0" y1="540" x2="1020.0" y2="546" stroke="#2f2a24" stroke-width="1"/>
</svg>
